<svg width="47" height="47" viewBox="0 0 47 47" fill="none" xmlns="http://www.w3.org/2000/svg">
<path d="M39.4896 44.8452C41.2642 44.8452 42.703 43.4065 42.703 41.6318C42.703 39.8572 41.2642 38.4184 39.4896 38.4184C37.7149 38.4184 36.2762 39.8572 36.2762 41.6318C36.2762 43.4065 37.7149 44.8452 39.4896 44.8452Z" fill="black" stroke="black" stroke-width="3.21339" stroke-linecap="round" stroke-linejoin="round"/>
<path d="M18.067 44.8452C19.8416 44.8452 21.2804 43.4065 21.2804 41.6318C21.2804 39.8572 19.8416 38.4184 18.067 38.4184C16.2923 38.4184 14.8536 39.8572 14.8536 41.6318C14.8536 43.4065 16.2923 44.8452 18.067 44.8452Z" fill="black" stroke="black" stroke-width="3.21339" stroke-linecap="round" stroke-linejoin="round"/>
<path d="M8.42678 6.28452H44.8452L40.5607 29.8494H12.7113L8.42678 6.28452ZM8.42678 6.28452C8.06973 4.85634 6.28452 2 2 2" stroke="black" stroke-width="3.21339" stroke-linecap="round" stroke-linejoin="round"/>
<path d="M40.5607 29.8494H12.7113H8.92113C5.09867 29.8494 3.07111 31.5229 3.07111 34.1339C3.07111 36.7449 5.09867 38.4184 8.92113 38.4184H39.4895" stroke="black" stroke-width="3.21339" stroke-linecap="round" stroke-linejoin="round"/>
</svg>
